<mxfile host="app.diagrams.net" modified="2021-04-15T13:30:20.486Z" agent="5.0 (Windows)" etag="WAFbUTxSAzb_hwnFlnMD" version="14.6.0" type="github">
  <diagram id="HW1_4ZrtldeKbovoz1Gh" name="Page-1">
    <mxGraphModel dx="770" dy="380" grid="1" gridSize="10" guides="1" tooltips="1" connect="1" arrows="1" fold="1" page="1" pageScale="1" pageWidth="827" pageHeight="1169" math="0" shadow="0">
      <root>
        <mxCell id="0" />
        <mxCell id="1" parent="0" />
        <mxCell id="379dkRuL0LoOobD47lfA-48" style="edgeStyle=orthogonalEdgeStyle;rounded=0;orthogonalLoop=1;jettySize=auto;html=1;" edge="1" parent="1" source="379dkRuL0LoOobD47lfA-3" target="379dkRuL0LoOobD47lfA-18">
          <mxGeometry relative="1" as="geometry" />
        </mxCell>
        <mxCell id="379dkRuL0LoOobD47lfA-3" value="Assemblée National" style="rounded=0;whiteSpace=wrap;html=1;" vertex="1" parent="1">
          <mxGeometry x="130" y="300" width="120" height="60" as="geometry" />
        </mxCell>
        <mxCell id="379dkRuL0LoOobD47lfA-18" value="&lt;div&gt;Sénat&lt;/div&gt;" style="rounded=0;whiteSpace=wrap;html=1;" vertex="1" parent="1">
          <mxGeometry x="130" y="390" width="120" height="60" as="geometry" />
        </mxCell>
        <mxCell id="379dkRuL0LoOobD47lfA-42" style="edgeStyle=orthogonalEdgeStyle;rounded=0;orthogonalLoop=1;jettySize=auto;html=1;" edge="1" parent="1" source="379dkRuL0LoOobD47lfA-19" target="379dkRuL0LoOobD47lfA-32">
          <mxGeometry relative="1" as="geometry" />
        </mxCell>
        <mxCell id="379dkRuL0LoOobD47lfA-19" value="&lt;div&gt;Analyse de la lois par les &lt;br&gt;&lt;/div&gt;&lt;div&gt;Députés&lt;br&gt;&lt;/div&gt;" style="rounded=0;whiteSpace=wrap;html=1;" vertex="1" parent="1">
          <mxGeometry x="300" y="390" width="120" height="60" as="geometry" />
        </mxCell>
        <mxCell id="379dkRuL0LoOobD47lfA-26" value="&lt;div&gt;577&lt;/div&gt;&lt;div&gt;Votants&lt;br&gt;&lt;/div&gt;" style="text;html=1;strokeColor=none;fillColor=none;align=center;verticalAlign=middle;whiteSpace=wrap;rounded=0;" vertex="1" parent="1">
          <mxGeometry x="430" y="520" width="40" height="20" as="geometry" />
        </mxCell>
        <mxCell id="379dkRuL0LoOobD47lfA-47" style="edgeStyle=orthogonalEdgeStyle;rounded=0;orthogonalLoop=1;jettySize=auto;html=1;entryX=0.5;entryY=0;entryDx=0;entryDy=0;" edge="1" parent="1" source="379dkRuL0LoOobD47lfA-27" target="379dkRuL0LoOobD47lfA-3">
          <mxGeometry relative="1" as="geometry" />
        </mxCell>
        <mxCell id="379dkRuL0LoOobD47lfA-27" value="Proposition de lois du Président à l&#39;assemblée" style="rounded=0;whiteSpace=wrap;html=1;" vertex="1" parent="1">
          <mxGeometry x="130" y="200" width="120" height="60" as="geometry" />
        </mxCell>
        <mxCell id="379dkRuL0LoOobD47lfA-31" value="" style="endArrow=classic;html=1;exitX=1;exitY=0.5;exitDx=0;exitDy=0;entryX=0;entryY=0.5;entryDx=0;entryDy=0;" edge="1" parent="1" source="379dkRuL0LoOobD47lfA-18" target="379dkRuL0LoOobD47lfA-19">
          <mxGeometry width="50" height="50" relative="1" as="geometry">
            <mxPoint x="540" y="240" as="sourcePoint" />
            <mxPoint x="380" y="389" as="targetPoint" />
          </mxGeometry>
        </mxCell>
        <mxCell id="379dkRuL0LoOobD47lfA-43" style="edgeStyle=orthogonalEdgeStyle;rounded=0;orthogonalLoop=1;jettySize=auto;html=1;exitX=1;exitY=0.5;exitDx=0;exitDy=0;entryX=0;entryY=0.5;entryDx=0;entryDy=0;" edge="1" parent="1" source="379dkRuL0LoOobD47lfA-32" target="379dkRuL0LoOobD47lfA-33">
          <mxGeometry relative="1" as="geometry" />
        </mxCell>
        <mxCell id="379dkRuL0LoOobD47lfA-32" value="Création d&#39;un Wallet par votant" style="rounded=0;whiteSpace=wrap;html=1;" vertex="1" parent="1">
          <mxGeometry x="300" y="480" width="120" height="60" as="geometry" />
        </mxCell>
        <mxCell id="379dkRuL0LoOobD47lfA-46" style="edgeStyle=orthogonalEdgeStyle;rounded=0;orthogonalLoop=1;jettySize=auto;html=1;exitX=1;exitY=0.5;exitDx=0;exitDy=0;entryX=0;entryY=0.5;entryDx=0;entryDy=0;" edge="1" parent="1" source="379dkRuL0LoOobD47lfA-33" target="379dkRuL0LoOobD47lfA-34">
          <mxGeometry relative="1" as="geometry" />
        </mxCell>
        <mxCell id="379dkRuL0LoOobD47lfA-33" value="attribution d&#39;une clé publique pour tous les votants" style="rounded=0;whiteSpace=wrap;html=1;" vertex="1" parent="1">
          <mxGeometry x="480" y="480" width="120" height="60" as="geometry" />
        </mxCell>
        <mxCell id="379dkRuL0LoOobD47lfA-34" value="&lt;div&gt;Ouverture du vote&lt;/div&gt;&lt;div&gt;Oui/Non/Blanc&lt;br&gt;&lt;/div&gt;" style="rounded=0;whiteSpace=wrap;html=1;" vertex="1" parent="1">
          <mxGeometry x="640" y="480" width="120" height="60" as="geometry" />
        </mxCell>
      </root>
    </mxGraphModel>
  </diagram>
</mxfile>
